%TF.GenerationSoftware,KiCad,Pcbnew,7.0.10-7.0.10~ubuntu22.04.1*%
%TF.CreationDate,2024-08-18T21:11:38-07:00*%
%TF.ProjectId,xl_maxsonar_adapter,786c5f6d-6178-4736-9f6e-61725f616461,rev?*%
%TF.SameCoordinates,Original*%
%TF.FileFunction,Legend,Bot*%
%TF.FilePolarity,Positive*%
%FSLAX46Y46*%
G04 Gerber Fmt 4.6, Leading zero omitted, Abs format (unit mm)*
G04 Created by KiCad (PCBNEW 7.0.10-7.0.10~ubuntu22.04.1) date 2024-08-18 21:11:38*
%MOMM*%
%LPD*%
G01*
G04 APERTURE LIST*
%ADD10C,0.150000*%
G04 APERTURE END LIST*
D10*
X69350180Y-64671428D02*
X68350180Y-64004762D01*
X69350180Y-64004762D02*
X68350180Y-64671428D01*
X68350180Y-63147619D02*
X68350180Y-63623809D01*
X68350180Y-63623809D02*
X69350180Y-63623809D01*
X68350180Y-62052380D02*
X69350180Y-62052380D01*
X69350180Y-62052380D02*
X68635895Y-61719047D01*
X68635895Y-61719047D02*
X69350180Y-61385714D01*
X69350180Y-61385714D02*
X68350180Y-61385714D01*
X68350180Y-60480952D02*
X68873990Y-60480952D01*
X68873990Y-60480952D02*
X68969228Y-60528571D01*
X68969228Y-60528571D02*
X69016847Y-60623809D01*
X69016847Y-60623809D02*
X69016847Y-60814285D01*
X69016847Y-60814285D02*
X68969228Y-60909523D01*
X68397800Y-60480952D02*
X68350180Y-60576190D01*
X68350180Y-60576190D02*
X68350180Y-60814285D01*
X68350180Y-60814285D02*
X68397800Y-60909523D01*
X68397800Y-60909523D02*
X68493038Y-60957142D01*
X68493038Y-60957142D02*
X68588276Y-60957142D01*
X68588276Y-60957142D02*
X68683514Y-60909523D01*
X68683514Y-60909523D02*
X68731133Y-60814285D01*
X68731133Y-60814285D02*
X68731133Y-60576190D01*
X68731133Y-60576190D02*
X68778752Y-60480952D01*
X68350180Y-60099999D02*
X69016847Y-59576190D01*
X69016847Y-60099999D02*
X68350180Y-59576190D01*
X68397800Y-59242856D02*
X68350180Y-59099999D01*
X68350180Y-59099999D02*
X68350180Y-58861904D01*
X68350180Y-58861904D02*
X68397800Y-58766666D01*
X68397800Y-58766666D02*
X68445419Y-58719047D01*
X68445419Y-58719047D02*
X68540657Y-58671428D01*
X68540657Y-58671428D02*
X68635895Y-58671428D01*
X68635895Y-58671428D02*
X68731133Y-58719047D01*
X68731133Y-58719047D02*
X68778752Y-58766666D01*
X68778752Y-58766666D02*
X68826371Y-58861904D01*
X68826371Y-58861904D02*
X68873990Y-59052380D01*
X68873990Y-59052380D02*
X68921609Y-59147618D01*
X68921609Y-59147618D02*
X68969228Y-59195237D01*
X68969228Y-59195237D02*
X69064466Y-59242856D01*
X69064466Y-59242856D02*
X69159704Y-59242856D01*
X69159704Y-59242856D02*
X69254942Y-59195237D01*
X69254942Y-59195237D02*
X69302561Y-59147618D01*
X69302561Y-59147618D02*
X69350180Y-59052380D01*
X69350180Y-59052380D02*
X69350180Y-58814285D01*
X69350180Y-58814285D02*
X69302561Y-58671428D01*
X68350180Y-58099999D02*
X68397800Y-58195237D01*
X68397800Y-58195237D02*
X68445419Y-58242856D01*
X68445419Y-58242856D02*
X68540657Y-58290475D01*
X68540657Y-58290475D02*
X68826371Y-58290475D01*
X68826371Y-58290475D02*
X68921609Y-58242856D01*
X68921609Y-58242856D02*
X68969228Y-58195237D01*
X68969228Y-58195237D02*
X69016847Y-58099999D01*
X69016847Y-58099999D02*
X69016847Y-57957142D01*
X69016847Y-57957142D02*
X68969228Y-57861904D01*
X68969228Y-57861904D02*
X68921609Y-57814285D01*
X68921609Y-57814285D02*
X68826371Y-57766666D01*
X68826371Y-57766666D02*
X68540657Y-57766666D01*
X68540657Y-57766666D02*
X68445419Y-57814285D01*
X68445419Y-57814285D02*
X68397800Y-57861904D01*
X68397800Y-57861904D02*
X68350180Y-57957142D01*
X68350180Y-57957142D02*
X68350180Y-58099999D01*
X69016847Y-57338094D02*
X68350180Y-57338094D01*
X68921609Y-57338094D02*
X68969228Y-57290475D01*
X68969228Y-57290475D02*
X69016847Y-57195237D01*
X69016847Y-57195237D02*
X69016847Y-57052380D01*
X69016847Y-57052380D02*
X68969228Y-56957142D01*
X68969228Y-56957142D02*
X68873990Y-56909523D01*
X68873990Y-56909523D02*
X68350180Y-56909523D01*
X68350180Y-56004761D02*
X68873990Y-56004761D01*
X68873990Y-56004761D02*
X68969228Y-56052380D01*
X68969228Y-56052380D02*
X69016847Y-56147618D01*
X69016847Y-56147618D02*
X69016847Y-56338094D01*
X69016847Y-56338094D02*
X68969228Y-56433332D01*
X68397800Y-56004761D02*
X68350180Y-56099999D01*
X68350180Y-56099999D02*
X68350180Y-56338094D01*
X68350180Y-56338094D02*
X68397800Y-56433332D01*
X68397800Y-56433332D02*
X68493038Y-56480951D01*
X68493038Y-56480951D02*
X68588276Y-56480951D01*
X68588276Y-56480951D02*
X68683514Y-56433332D01*
X68683514Y-56433332D02*
X68731133Y-56338094D01*
X68731133Y-56338094D02*
X68731133Y-56099999D01*
X68731133Y-56099999D02*
X68778752Y-56004761D01*
X68350180Y-55528570D02*
X69016847Y-55528570D01*
X68826371Y-55528570D02*
X68921609Y-55480951D01*
X68921609Y-55480951D02*
X68969228Y-55433332D01*
X68969228Y-55433332D02*
X69016847Y-55338094D01*
X69016847Y-55338094D02*
X69016847Y-55242856D01*
X67025895Y-64171428D02*
X67025895Y-63695238D01*
X66740180Y-64266666D02*
X67740180Y-63933333D01*
X67740180Y-63933333D02*
X66740180Y-63600000D01*
X66740180Y-62838095D02*
X67740180Y-62838095D01*
X66787800Y-62838095D02*
X66740180Y-62933333D01*
X66740180Y-62933333D02*
X66740180Y-63123809D01*
X66740180Y-63123809D02*
X66787800Y-63219047D01*
X66787800Y-63219047D02*
X66835419Y-63266666D01*
X66835419Y-63266666D02*
X66930657Y-63314285D01*
X66930657Y-63314285D02*
X67216371Y-63314285D01*
X67216371Y-63314285D02*
X67311609Y-63266666D01*
X67311609Y-63266666D02*
X67359228Y-63219047D01*
X67359228Y-63219047D02*
X67406847Y-63123809D01*
X67406847Y-63123809D02*
X67406847Y-62933333D01*
X67406847Y-62933333D02*
X67359228Y-62838095D01*
X66740180Y-61933333D02*
X67263990Y-61933333D01*
X67263990Y-61933333D02*
X67359228Y-61980952D01*
X67359228Y-61980952D02*
X67406847Y-62076190D01*
X67406847Y-62076190D02*
X67406847Y-62266666D01*
X67406847Y-62266666D02*
X67359228Y-62361904D01*
X66787800Y-61933333D02*
X66740180Y-62028571D01*
X66740180Y-62028571D02*
X66740180Y-62266666D01*
X66740180Y-62266666D02*
X66787800Y-62361904D01*
X66787800Y-62361904D02*
X66883038Y-62409523D01*
X66883038Y-62409523D02*
X66978276Y-62409523D01*
X66978276Y-62409523D02*
X67073514Y-62361904D01*
X67073514Y-62361904D02*
X67121133Y-62266666D01*
X67121133Y-62266666D02*
X67121133Y-62028571D01*
X67121133Y-62028571D02*
X67168752Y-61933333D01*
X67406847Y-61457142D02*
X66406847Y-61457142D01*
X67359228Y-61457142D02*
X67406847Y-61361904D01*
X67406847Y-61361904D02*
X67406847Y-61171428D01*
X67406847Y-61171428D02*
X67359228Y-61076190D01*
X67359228Y-61076190D02*
X67311609Y-61028571D01*
X67311609Y-61028571D02*
X67216371Y-60980952D01*
X67216371Y-60980952D02*
X66930657Y-60980952D01*
X66930657Y-60980952D02*
X66835419Y-61028571D01*
X66835419Y-61028571D02*
X66787800Y-61076190D01*
X66787800Y-61076190D02*
X66740180Y-61171428D01*
X66740180Y-61171428D02*
X66740180Y-61361904D01*
X66740180Y-61361904D02*
X66787800Y-61457142D01*
X67406847Y-60695237D02*
X67406847Y-60314285D01*
X67740180Y-60552380D02*
X66883038Y-60552380D01*
X66883038Y-60552380D02*
X66787800Y-60504761D01*
X66787800Y-60504761D02*
X66740180Y-60409523D01*
X66740180Y-60409523D02*
X66740180Y-60314285D01*
X66787800Y-59599999D02*
X66740180Y-59695237D01*
X66740180Y-59695237D02*
X66740180Y-59885713D01*
X66740180Y-59885713D02*
X66787800Y-59980951D01*
X66787800Y-59980951D02*
X66883038Y-60028570D01*
X66883038Y-60028570D02*
X67263990Y-60028570D01*
X67263990Y-60028570D02*
X67359228Y-59980951D01*
X67359228Y-59980951D02*
X67406847Y-59885713D01*
X67406847Y-59885713D02*
X67406847Y-59695237D01*
X67406847Y-59695237D02*
X67359228Y-59599999D01*
X67359228Y-59599999D02*
X67263990Y-59552380D01*
X67263990Y-59552380D02*
X67168752Y-59552380D01*
X67168752Y-59552380D02*
X67073514Y-60028570D01*
X66740180Y-59123808D02*
X67406847Y-59123808D01*
X67216371Y-59123808D02*
X67311609Y-59076189D01*
X67311609Y-59076189D02*
X67359228Y-59028570D01*
X67359228Y-59028570D02*
X67406847Y-58933332D01*
X67406847Y-58933332D02*
X67406847Y-58838094D01*
X67406847Y-57838093D02*
X66740180Y-57599998D01*
X66740180Y-57599998D02*
X67406847Y-57361903D01*
X67740180Y-56790474D02*
X67740180Y-56695236D01*
X67740180Y-56695236D02*
X67692561Y-56599998D01*
X67692561Y-56599998D02*
X67644942Y-56552379D01*
X67644942Y-56552379D02*
X67549704Y-56504760D01*
X67549704Y-56504760D02*
X67359228Y-56457141D01*
X67359228Y-56457141D02*
X67121133Y-56457141D01*
X67121133Y-56457141D02*
X66930657Y-56504760D01*
X66930657Y-56504760D02*
X66835419Y-56552379D01*
X66835419Y-56552379D02*
X66787800Y-56599998D01*
X66787800Y-56599998D02*
X66740180Y-56695236D01*
X66740180Y-56695236D02*
X66740180Y-56790474D01*
X66740180Y-56790474D02*
X66787800Y-56885712D01*
X66787800Y-56885712D02*
X66835419Y-56933331D01*
X66835419Y-56933331D02*
X66930657Y-56980950D01*
X66930657Y-56980950D02*
X67121133Y-57028569D01*
X67121133Y-57028569D02*
X67359228Y-57028569D01*
X67359228Y-57028569D02*
X67549704Y-56980950D01*
X67549704Y-56980950D02*
X67644942Y-56933331D01*
X67644942Y-56933331D02*
X67692561Y-56885712D01*
X67692561Y-56885712D02*
X67740180Y-56790474D01*
X66835419Y-56028569D02*
X66787800Y-55980950D01*
X66787800Y-55980950D02*
X66740180Y-56028569D01*
X66740180Y-56028569D02*
X66787800Y-56076188D01*
X66787800Y-56076188D02*
X66835419Y-56028569D01*
X66835419Y-56028569D02*
X66740180Y-56028569D01*
X66740180Y-55028570D02*
X66740180Y-55599998D01*
X66740180Y-55314284D02*
X67740180Y-55314284D01*
X67740180Y-55314284D02*
X67597323Y-55409522D01*
X67597323Y-55409522D02*
X67502085Y-55504760D01*
X67502085Y-55504760D02*
X67454466Y-55599998D01*
X65796847Y-65838094D02*
X65130180Y-65647618D01*
X65130180Y-65647618D02*
X65606371Y-65457142D01*
X65606371Y-65457142D02*
X65130180Y-65266666D01*
X65130180Y-65266666D02*
X65796847Y-65076190D01*
X65796847Y-64790475D02*
X65130180Y-64599999D01*
X65130180Y-64599999D02*
X65606371Y-64409523D01*
X65606371Y-64409523D02*
X65130180Y-64219047D01*
X65130180Y-64219047D02*
X65796847Y-64028571D01*
X65796847Y-63742856D02*
X65130180Y-63552380D01*
X65130180Y-63552380D02*
X65606371Y-63361904D01*
X65606371Y-63361904D02*
X65130180Y-63171428D01*
X65130180Y-63171428D02*
X65796847Y-62980952D01*
X65225419Y-62599999D02*
X65177800Y-62552380D01*
X65177800Y-62552380D02*
X65130180Y-62599999D01*
X65130180Y-62599999D02*
X65177800Y-62647618D01*
X65177800Y-62647618D02*
X65225419Y-62599999D01*
X65225419Y-62599999D02*
X65130180Y-62599999D01*
X65130180Y-62123809D02*
X65796847Y-62123809D01*
X66130180Y-62123809D02*
X66082561Y-62171428D01*
X66082561Y-62171428D02*
X66034942Y-62123809D01*
X66034942Y-62123809D02*
X66082561Y-62076190D01*
X66082561Y-62076190D02*
X66130180Y-62123809D01*
X66130180Y-62123809D02*
X66034942Y-62123809D01*
X65130180Y-61504762D02*
X65177800Y-61600000D01*
X65177800Y-61600000D02*
X65225419Y-61647619D01*
X65225419Y-61647619D02*
X65320657Y-61695238D01*
X65320657Y-61695238D02*
X65606371Y-61695238D01*
X65606371Y-61695238D02*
X65701609Y-61647619D01*
X65701609Y-61647619D02*
X65749228Y-61600000D01*
X65749228Y-61600000D02*
X65796847Y-61504762D01*
X65796847Y-61504762D02*
X65796847Y-61361905D01*
X65796847Y-61361905D02*
X65749228Y-61266667D01*
X65749228Y-61266667D02*
X65701609Y-61219048D01*
X65701609Y-61219048D02*
X65606371Y-61171429D01*
X65606371Y-61171429D02*
X65320657Y-61171429D01*
X65320657Y-61171429D02*
X65225419Y-61219048D01*
X65225419Y-61219048D02*
X65177800Y-61266667D01*
X65177800Y-61266667D02*
X65130180Y-61361905D01*
X65130180Y-61361905D02*
X65130180Y-61504762D01*
X65130180Y-60742857D02*
X65796847Y-60742857D01*
X65606371Y-60742857D02*
X65701609Y-60695238D01*
X65701609Y-60695238D02*
X65749228Y-60647619D01*
X65749228Y-60647619D02*
X65796847Y-60552381D01*
X65796847Y-60552381D02*
X65796847Y-60457143D01*
X65130180Y-59980952D02*
X65177800Y-60076190D01*
X65177800Y-60076190D02*
X65225419Y-60123809D01*
X65225419Y-60123809D02*
X65320657Y-60171428D01*
X65320657Y-60171428D02*
X65606371Y-60171428D01*
X65606371Y-60171428D02*
X65701609Y-60123809D01*
X65701609Y-60123809D02*
X65749228Y-60076190D01*
X65749228Y-60076190D02*
X65796847Y-59980952D01*
X65796847Y-59980952D02*
X65796847Y-59838095D01*
X65796847Y-59838095D02*
X65749228Y-59742857D01*
X65749228Y-59742857D02*
X65701609Y-59695238D01*
X65701609Y-59695238D02*
X65606371Y-59647619D01*
X65606371Y-59647619D02*
X65320657Y-59647619D01*
X65320657Y-59647619D02*
X65225419Y-59695238D01*
X65225419Y-59695238D02*
X65177800Y-59742857D01*
X65177800Y-59742857D02*
X65130180Y-59838095D01*
X65130180Y-59838095D02*
X65130180Y-59980952D01*
X65130180Y-58790476D02*
X66130180Y-58790476D01*
X65177800Y-58790476D02*
X65130180Y-58885714D01*
X65130180Y-58885714D02*
X65130180Y-59076190D01*
X65130180Y-59076190D02*
X65177800Y-59171428D01*
X65177800Y-59171428D02*
X65225419Y-59219047D01*
X65225419Y-59219047D02*
X65320657Y-59266666D01*
X65320657Y-59266666D02*
X65606371Y-59266666D01*
X65606371Y-59266666D02*
X65701609Y-59219047D01*
X65701609Y-59219047D02*
X65749228Y-59171428D01*
X65749228Y-59171428D02*
X65796847Y-59076190D01*
X65796847Y-59076190D02*
X65796847Y-58885714D01*
X65796847Y-58885714D02*
X65749228Y-58790476D01*
X65177800Y-57933333D02*
X65130180Y-58028571D01*
X65130180Y-58028571D02*
X65130180Y-58219047D01*
X65130180Y-58219047D02*
X65177800Y-58314285D01*
X65177800Y-58314285D02*
X65273038Y-58361904D01*
X65273038Y-58361904D02*
X65653990Y-58361904D01*
X65653990Y-58361904D02*
X65749228Y-58314285D01*
X65749228Y-58314285D02*
X65796847Y-58219047D01*
X65796847Y-58219047D02*
X65796847Y-58028571D01*
X65796847Y-58028571D02*
X65749228Y-57933333D01*
X65749228Y-57933333D02*
X65653990Y-57885714D01*
X65653990Y-57885714D02*
X65558752Y-57885714D01*
X65558752Y-57885714D02*
X65463514Y-58361904D01*
X65130180Y-57314285D02*
X65177800Y-57409523D01*
X65177800Y-57409523D02*
X65225419Y-57457142D01*
X65225419Y-57457142D02*
X65320657Y-57504761D01*
X65320657Y-57504761D02*
X65606371Y-57504761D01*
X65606371Y-57504761D02*
X65701609Y-57457142D01*
X65701609Y-57457142D02*
X65749228Y-57409523D01*
X65749228Y-57409523D02*
X65796847Y-57314285D01*
X65796847Y-57314285D02*
X65796847Y-57171428D01*
X65796847Y-57171428D02*
X65749228Y-57076190D01*
X65749228Y-57076190D02*
X65701609Y-57028571D01*
X65701609Y-57028571D02*
X65606371Y-56980952D01*
X65606371Y-56980952D02*
X65320657Y-56980952D01*
X65320657Y-56980952D02*
X65225419Y-57028571D01*
X65225419Y-57028571D02*
X65177800Y-57076190D01*
X65177800Y-57076190D02*
X65130180Y-57171428D01*
X65130180Y-57171428D02*
X65130180Y-57314285D01*
X65225419Y-56552380D02*
X65177800Y-56504761D01*
X65177800Y-56504761D02*
X65130180Y-56552380D01*
X65130180Y-56552380D02*
X65177800Y-56599999D01*
X65177800Y-56599999D02*
X65225419Y-56552380D01*
X65225419Y-56552380D02*
X65130180Y-56552380D01*
X65177800Y-55647619D02*
X65130180Y-55742857D01*
X65130180Y-55742857D02*
X65130180Y-55933333D01*
X65130180Y-55933333D02*
X65177800Y-56028571D01*
X65177800Y-56028571D02*
X65225419Y-56076190D01*
X65225419Y-56076190D02*
X65320657Y-56123809D01*
X65320657Y-56123809D02*
X65606371Y-56123809D01*
X65606371Y-56123809D02*
X65701609Y-56076190D01*
X65701609Y-56076190D02*
X65749228Y-56028571D01*
X65749228Y-56028571D02*
X65796847Y-55933333D01*
X65796847Y-55933333D02*
X65796847Y-55742857D01*
X65796847Y-55742857D02*
X65749228Y-55647619D01*
X65130180Y-55076190D02*
X65177800Y-55171428D01*
X65177800Y-55171428D02*
X65225419Y-55219047D01*
X65225419Y-55219047D02*
X65320657Y-55266666D01*
X65320657Y-55266666D02*
X65606371Y-55266666D01*
X65606371Y-55266666D02*
X65701609Y-55219047D01*
X65701609Y-55219047D02*
X65749228Y-55171428D01*
X65749228Y-55171428D02*
X65796847Y-55076190D01*
X65796847Y-55076190D02*
X65796847Y-54933333D01*
X65796847Y-54933333D02*
X65749228Y-54838095D01*
X65749228Y-54838095D02*
X65701609Y-54790476D01*
X65701609Y-54790476D02*
X65606371Y-54742857D01*
X65606371Y-54742857D02*
X65320657Y-54742857D01*
X65320657Y-54742857D02*
X65225419Y-54790476D01*
X65225419Y-54790476D02*
X65177800Y-54838095D01*
X65177800Y-54838095D02*
X65130180Y-54933333D01*
X65130180Y-54933333D02*
X65130180Y-55076190D01*
X65130180Y-54314285D02*
X65796847Y-54314285D01*
X65701609Y-54314285D02*
X65749228Y-54266666D01*
X65749228Y-54266666D02*
X65796847Y-54171428D01*
X65796847Y-54171428D02*
X65796847Y-54028571D01*
X65796847Y-54028571D02*
X65749228Y-53933333D01*
X65749228Y-53933333D02*
X65653990Y-53885714D01*
X65653990Y-53885714D02*
X65130180Y-53885714D01*
X65653990Y-53885714D02*
X65749228Y-53838095D01*
X65749228Y-53838095D02*
X65796847Y-53742857D01*
X65796847Y-53742857D02*
X65796847Y-53600000D01*
X65796847Y-53600000D02*
X65749228Y-53504761D01*
X65749228Y-53504761D02*
X65653990Y-53457142D01*
X65653990Y-53457142D02*
X65130180Y-53457142D01*
M02*
